<?xml version="1.0" encoding="UTF-8" standalone="no"?>
<!-- Created with Inkscape (http://www.inkscape.org/) -->

<svg
   xmlns:dc="http://purl.org/dc/elements/1.1/"
   xmlns:cc="http://creativecommons.org/ns#"
   xmlns:rdf="http://www.w3.org/1999/02/22-rdf-syntax-ns#"
   xmlns:svg="http://www.w3.org/2000/svg"
   xmlns="http://www.w3.org/2000/svg"
   xmlns:sodipodi="http://sodipodi.sourceforge.net/DTD/sodipodi-0.dtd"
   xmlns:inkscape="http://www.inkscape.org/namespaces/inkscape"
   id="svg3004"
   version="1.1"
   inkscape:version="0.48.5 r10040"
   width="747.5"
   height="1052.5"
   xml:space="preserve"
   sodipodi:docname="fiducials-120.pdf"><metadata
     id="metadata3010"><rdf:RDF><cc:Work
         rdf:about=""><dc:format>image/svg+xml</dc:format><dc:type
           rdf:resource="http://purl.org/dc/dcmitype/StillImage" /><dc:title></dc:title></cc:Work></rdf:RDF></metadata><defs
     id="defs3008" /><sodipodi:namedview
     pagecolor="#ffffff"
     bordercolor="#666666"
     borderopacity="1"
     objecttolerance="10"
     gridtolerance="10"
     guidetolerance="10"
     inkscape:pageopacity="0"
     inkscape:pageshadow="2"
     inkscape:window-width="1440"
     inkscape:window-height="852"
     id="namedview3006"
     showgrid="false"
     units="mm"
     inkscape:zoom="0.63421264"
     inkscape:cx="575.7428"
     inkscape:cy="507.77713"
     inkscape:window-x="0"
     inkscape:window-y="0"
     inkscape:window-maximized="1"
     inkscape:current-layer="g3012" /><g
     id="g3012"
     inkscape:groupmode="layer"
     inkscape:label="default"
     transform="matrix(1.25,0,0,-1.25,0,1052.5)"><g
       id="g3014" /><g
       id="g4810"><g
         id="g4745"><path
           inkscape:connector-curvature="0"
           id="path3030"
           style="fill:#ffffff;fill-opacity:1;fill-rule:nonzero;stroke:#000000;stroke-width:0.5;stroke-miterlimit:4;stroke-opacity:1;stroke-dasharray:none"
           d="m 101.04048,767.17213 0,-187.08661 187.08662,0 0,187.08661 -187.08662,0 z" /><path
           inkscape:connector-curvature="0"
           id="path3032"
           style="fill:#000000;fill-opacity:1;fill-rule:nonzero;stroke:none"
           d="m 166.33989,758.65656 c -16.584,-2.208 -36.132,3.744 -48.888,-10.032 -11.556,-12.48 -6.852,-26.136 -5.82,-41.208 0.504,-7.452 1.788,-15.396 1.644,-22.848 -0.12,-6.492 -2.136,-12.744 -2.76,-19.176 -0.78,-7.98 -0.072,-16.044 -0.072,-24.072 0,-14.616 -0.276,-27.756 10.62,-39.168 7.632,-7.98 17.352,-13.368 28.548,-13.86 5.628,-0.24 11.136,0.948 16.728,1.2 8.34,0.36 16.608,-1.74 24.888,-1.176 7.584,0.516 14.844,3.3 22.44,3.624 10.704,0.444 20.496,-4.392 31.416,-2.664 19.812,3.12 34.752,22.068 34.26,41.844 -0.204,8.64 -4.188,16.692 -4.464,25.296 -0.204,6.636 2.148,13.392 2.772,19.992 0.468,4.932 -0.516,9.792 -0.732,14.688 -0.54,12.348 4.128,25.224 -2.184,36.72 -2.172,3.96 -5.268,7.044 -8.436,10.2 -8.964,8.928 -23.1,21.42 -36.72,20.724 -9.252,-0.48 -17.364,-7.032 -26.52,-6.804 -6.216,0.156 -12.12,3.444 -17.952,5.244 -5.88,1.824 -12.648,2.28 -18.768,1.476 z" /><path
           inkscape:connector-curvature="0"
           id="path3034"
           style="fill:#ffffff;fill-opacity:1;fill-rule:nonzero;stroke:none"
           d="m 171.23589,748.04856 c -5.364,-0.684 -10.908,-2.136 -16.32,-2.28 -11.316,-0.276 -21.144,3.216 -29.712,-6.528 -8.136,-9.252 -2.112,-21.768 -2.112,-32.64 0,-7.968 3.132,-16.2 2.376,-24.072 -0.672,-7.092 -3.672,-13.704 -4.344,-20.808 -0.588,-6.132 1.128,-12.252 0.708,-18.36 -0.912,-13.392 -1.32,-24.888 9.012,-35.076 12.756,-12.6 26.328,-7.176 42.024,-7.356 7.344,-0.084 14.196,-2.496 21.624,-1.188 6.204,1.092 12.024,4.56 18.36,4.848 10.008,0.432 18.744,-6.3 28.968,-4.704 10.788,1.68 20.796,10.044 24.708,20.22 4.992,12.972 -3.42,22.224 -4.272,34.68 -0.516,7.452 3.672,14.292 4.38,21.624 0.768,7.956 -2.064,15.696 -1.524,23.664 0.516,7.512 3.324,14.484 -0.576,21.624 -1.632,2.988 -3.924,5.784 -6.396,8.124 -7.716,7.272 -20.856,20.556 -32.64,16.32 -7.5,-2.7 -12.984,-13.98 -21.624,-12.948 -4.608,0.552 -8.724,4.968 -12.24,7.68 -5.616,4.332 -13.056,8.1 -20.4,7.176 z" /><path
           inkscape:connector-curvature="0"
           id="path3036"
           style="fill:#000000;fill-opacity:1;fill-rule:nonzero;stroke:none"
           d="m 229.57989,738.58056 c -11.016,-0.636 -9.78,-17.652 1.224,-16.812 10.788,0.84 9.564,17.436 -1.224,16.812 m -92.208,-0.816 c -11.016,-0.636 -9.78,-17.652 1.224,-16.812 10.788,0.84 9.564,17.436 -1.224,16.812 m 33.048,-2.388 c -2.856,-0.516 -5.532,-1.656 -7.74,-3.54 -3.756,-3.204 -6.744,-7.14 -7.284,-12.18 -1.236,-11.448 10.068,-21.192 21.144,-18.984 2.616,0.516 4.896,1.836 6.924,3.516 4.128,3.42 7.032,7.968 7.176,13.428 0.24,10.176 -10.056,19.596 -20.22,17.76 z" /><path
           inkscape:connector-curvature="0"
           id="path3038"
           style="fill:#ffffff;fill-opacity:1;fill-rule:nonzero;stroke:none"
           d="m 172.45989,725.11656 c -9.432,-0.576 -8.172,-15.18 1.224,-14.364 9.192,0.804 7.932,14.928 -1.224,14.364 z" /><path
           inkscape:connector-curvature="0"
           id="path3040"
           style="fill:#000000;fill-opacity:1;fill-rule:nonzero;stroke:none"
           d="m 249.16389,723.07656 c -11.016,-0.636 -9.78,-17.652 1.224,-16.812 10.788,0.84 9.564,17.436 -1.224,16.812 m -33.456,-10.14 c -10.536,-1.896 -17.808,-13.296 -13.992,-23.472 2.064,-5.496 7.284,-8.496 11.544,-12.072 8.088,-6.804 14.916,-17.88 26.928,-15.48 9.744,1.944 16.488,13.284 13.176,22.656 -1.968,5.592 -6.792,8.604 -11.136,12.204 -7.668,6.372 -15.108,18.216 -26.52,16.164 m -75.48,-4.14 c -11.016,-0.636 -9.78,-17.652 1.224,-16.812 10.788,0.84 9.564,17.436 -1.224,16.812 z" /><path
           inkscape:connector-curvature="0"
           id="path3042"
           style="fill:#ffffff;fill-opacity:1;fill-rule:nonzero;stroke:none"
           d="m 217.74789,702.67656 c -9.432,-0.576 -8.172,-15.18 1.224,-14.364 9.192,0.804 7.932,14.928 -1.224,14.364 z" /><path
           inkscape:connector-curvature="0"
           id="path3044"
           style="fill:#000000;fill-opacity:1;fill-rule:nonzero;stroke:none"
           d="m 172.05189,686.41656 c -5.016,-0.9 -9.204,-4.2 -13.872,-6.084 -10.032,-4.068 -21.888,-4.02 -24.288,-17.388 -1.248,-6.9 4.032,-12.384 3.408,-19.176 -0.372,-4.08 -2.496,-7.476 -3.324,-11.424 -1.38,-6.468 1.824,-12.48 6.66,-16.608 4.992,-4.26 12.528,-5.364 18.36,-2.088 4.068,2.292 6.708,6.048 11.832,5.736 4.44,-0.264 6.648,-3.3 10.2,-5.424 3.54,-2.136 7.824,-2.628 11.832,-1.824 6.264,1.248 12.432,7.416 13.68,13.68 0.756,3.768 0.108,7.596 0.648,11.424 0.984,6.768 4.932,13.032 3.408,19.992 -1.476,6.816 -7.308,10.224 -12.432,14.136 -7.728,5.904 -15.096,17.028 -26.112,15.048 z" /><path
           inkscape:connector-curvature="0"
           id="path3046"
           style="fill:#ffffff;fill-opacity:1;fill-rule:nonzero;stroke:none"
           d="m 236.10789,686.35656 c -9.432,-0.576 -8.172,-15.18 1.224,-14.364 9.192,0.804 7.932,14.928 -1.224,14.364 m -62.016,-10.2 c -9.432,-0.576 -8.172,-15.18 1.224,-14.364 9.192,0.804 7.932,14.928 -1.224,14.364 m -23.256,-8.568 c -9.432,-0.576 -8.172,-15.18 1.224,-14.364 9.192,0.804 7.932,14.928 -1.224,14.364 m 42.024,-6.936 c -9.432,-0.576 -8.172,-15.18 1.224,-14.364 9.192,0.804 7.932,14.928 -1.224,14.364 m -22.848,-8.568 c -9.432,-0.576 -8.172,-15.18 1.224,-14.364 9.192,0.804 7.932,14.928 -1.224,14.364 z" /><path
           inkscape:connector-curvature="0"
           id="path3048"
           style="fill:#000000;fill-opacity:1;fill-rule:nonzero;stroke:none"
           d="m 235.69989,647.24856 c -2.856,-0.516 -5.532,-1.656 -7.74,-3.54 -3.756,-3.204 -6.744,-7.14 -7.284,-12.18 -1.236,-11.448 10.068,-21.192 21.144,-18.984 2.616,0.516 4.896,1.836 6.924,3.516 4.128,3.42 7.032,7.956 7.176,13.428 0.24,10.176 -10.056,19.596 -20.22,17.76 z" /><path
           inkscape:connector-curvature="0"
           id="path3050"
           style="fill:#ffffff;fill-opacity:1;fill-rule:nonzero;stroke:none"
           d="m 237.73989,636.98856 c -9.432,-0.576 -8.172,-15.18 1.224,-14.364 9.192,0.804 7.932,14.928 -1.224,14.364 m -86.904,-0.408 c -9.432,-0.576 -8.172,-15.18 1.224,-14.364 9.192,0.804 7.932,14.928 -1.224,14.364 m 37.944,0 c -9.432,-0.576 -8.172,-15.18 1.224,-14.364 9.192,0.804 7.932,14.928 -1.224,14.364 z" /></g><text
         style="font-size:14.39999962px"
         y="-566.54022"
         x="100.70142"
         transform="scale(1,-1)"
         id="text3052"><tspan
           style="font-size:9.60000038px;font-variant:normal;font-weight:normal;writing-mode:lr-tb;fill:#000000;fill-opacity:1;fill-rule:nonzero;stroke:none;font-family:Arial;-inkscape-font-specification:ArialMT"
           x="100.70142 103.36375 105.4981 110.83884 116.1796 120.98273 123.11707 128.45781 130.59216 133.2545 135.38885 140.72958 143.39194"
           y="-566.54022"
           sodipodi:role="line"
           id="tspan3054">fiducial id 0</tspan></text>
<g
         transform="translate(0,3.06052)"
         id="g4734"><path
           d="m 316.51897,764.11161 0,-187.08661 187.08662,0 0,187.08661 -187.08662,0 z"
           style="fill:#ffffff;fill-opacity:1;fill-rule:nonzero;stroke:#000000;stroke-width:0.5;stroke-miterlimit:4;stroke-opacity:1;stroke-dasharray:none"
           id="path4732"
           inkscape:connector-curvature="0" /><path
           inkscape:connector-curvature="0"
           id="path3060"
           style="fill:#000000;fill-opacity:1;fill-rule:nonzero;stroke:none"
           d="m 443.41989,759.05256 c -11.64,-1.392 -21.96,-8.268 -33.864,-7.98 -7.848,0.204 -15.204,3.696 -22.848,5.052 -7.248,1.296 -14.376,-0.036 -21.624,-0.528 -11.856,-0.816 -21.984,0.048 -31.404,-8.676 -11.46,-10.596 -9.156,-23.988 -7.836,-37.872 0.684,-7.164 -0.96,-14.412 -0.264,-21.624 0.588,-6.132 3.096,-11.868 3.888,-17.952 1.08,-8.292 -3.048,-15.84 -4.992,-23.664 -1.968,-7.92 -1.488,-16.896 1.524,-24.48 4.68,-11.82 14.808,-19.536 25.212,-26.136 12.648,-8.028 24.552,-14.688 39.984,-12.96 10.164,1.128 18.792,9.9 28.968,9.696 6.924,-0.132 13.296,-4.668 19.584,-7.068 6.708,-2.568 13.74,-3.132 20.808,-2.172 15.672,2.112 29.064,15.144 33.276,30.072 1.98,7.008 1.764,14.436 2.256,21.624 0.54,7.812 1.536,15.528 -0.396,23.256 -2.4,9.588 -10.188,17.532 -11.352,27.336 -0.54,4.548 2.208,9.264 4.368,13.056 3.252,5.7 6.84,11.64 7.308,18.36 1.368,19.548 -16.332,28.884 -31.38,36.408 -6.36,3.18 -13.836,7.14 -21.216,6.252 z" /><path
           inkscape:connector-curvature="0"
           id="path3062"
           style="fill:#ffffff;fill-opacity:1;fill-rule:nonzero;stroke:none"
           d="m 441.78789,747.22056 c -5.508,-0.864 -10.26,-3.948 -15.504,-5.64 -6.276,-2.004 -13.044,-2.208 -19.584,-1.92 -7.752,0.348 -14.496,4.104 -22.032,5.232 -6.888,1.044 -13.512,-0.756 -20.4,-0.756 -7.716,0 -15.564,0.228 -21.624,-5.34 -8.604,-7.92 -6.096,-15.444 -5.34,-25.668 0.624,-8.472 -1.908,-16.872 -0.66,-25.296 1.068,-7.236 6.06,-13.212 7.104,-20.4 0.984,-6.876 -3.588,-12.468 -6.288,-18.36 -3.192,-6.996 -4.368,-14.64 -1.716,-22.032 1.74,-4.848 4.932,-9.048 8.532,-12.648 4.476,-4.476 9.768,-7.932 15.096,-11.292 9.588,-6.048 20.028,-12.444 31.824,-9.66 9.972,2.364 18.12,13.2 28.56,12.78 5.832,-0.24 11.088,-4.224 15.912,-7.092 6.696,-3.948 14.52,-7.104 22.44,-5.7 12.156,2.148 22.224,12.06 25.524,23.82 1.752,6.216 1.548,13.176 1.824,19.584 0.3,6.828 1.248,13.8 -1.116,20.4 -3.24,9.072 -12.06,15.972 -13.464,25.704 -1.896,13.164 11.22,20.736 13.212,32.64 2.436,14.556 -13.944,21.348 -24.348,26.844 -5.64,2.964 -11.376,5.832 -17.952,4.8 z" /><path
           inkscape:connector-curvature="0"
           id="path3064"
           style="fill:#000000;fill-opacity:1;fill-rule:nonzero;stroke:none"
           d="m 444.23589,738.98856 c -11.016,-0.636 -9.78,-17.652 1.224,-16.812 10.788,0.84 9.564,17.436 -1.224,16.812 m -63.648,-2.448 c -11.016,-0.636 -9.78,-17.652 1.224,-16.812 10.788,0.84 9.564,17.436 -1.224,16.812 m -28.152,-1.632 c -11.016,-0.636 -9.78,-17.652 1.224,-16.812 10.788,0.84 9.564,17.436 -1.224,16.812 m 114.648,-7.752 c -11.016,-0.636 -9.78,-17.652 1.224,-16.812 10.788,0.84 9.564,17.436 -1.224,16.812 m -57.12,-0.756 c -8.844,-1.584 -15.996,-10.32 -15.024,-19.392 0.516,-4.776 3.276,-9.144 4.236,-13.872 0.864,-4.32 -0.024,-8.832 1.176,-13.056 2.436,-8.664 11.4,-14.448 20.22,-12.936 5.22,0.888 9.972,4.836 14.688,7.116 3.924,1.896 8.484,2.148 12.24,4.26 8.856,4.98 13.332,16.488 6.96,25.224 -6,8.244 -13.584,6.072 -21.24,10.62 -7.788,4.608 -12.936,13.896 -23.256,12.036 z" /><path
           inkscape:connector-curvature="0"
           id="path3066"
           style="fill:#ffffff;fill-opacity:1;fill-rule:nonzero;stroke:none"
           d="m 412.00389,716.14056 c -9.432,-0.576 -8.172,-15.18 1.224,-14.364 9.192,0.804 7.932,14.928 -1.224,14.364 z" /><path
           inkscape:connector-curvature="0"
           id="path3068"
           style="fill:#000000;fill-opacity:1;fill-rule:nonzero;stroke:none"
           d="m 363.85989,709.67256 c -2.856,-0.516 -5.532,-1.656 -7.74,-3.54 -3.756,-3.204 -6.744,-7.14 -7.284,-12.18 -1.236,-11.448 10.068,-21.192 21.144,-18.984 2.616,0.516 4.896,1.836 6.924,3.516 4.128,3.42 7.032,7.968 7.176,13.428 0.24,10.176 -10.056,19.596 -20.22,17.76 z" /><path
           inkscape:connector-curvature="0"
           id="path3070"
           style="fill:#ffffff;fill-opacity:1;fill-rule:nonzero;stroke:none"
           d="m 439.33989,701.45256 c -9.432,-0.576 -8.172,-15.18 1.224,-14.364 9.192,0.804 7.932,14.928 -1.224,14.364 m -73.44,-2.04 c -9.432,-0.576 -8.172,-15.18 1.224,-14.364 9.192,0.804 7.932,14.928 -1.224,14.364 m 51,-7.752 c -9.432,-0.576 -8.172,-15.18 1.224,-14.364 9.192,0.804 7.932,14.928 -1.224,14.364 z" /><path
           inkscape:connector-curvature="0"
           id="path3072"
           style="fill:#000000;fill-opacity:1;fill-rule:nonzero;stroke:none"
           d="m 453.21189,665.60856 c -5.496,-0.984 -9.564,-4.92 -14.28,-7.608 -9.024,-5.148 -20.94,-6.696 -22.728,-19.128 -1.932,-13.44 11.484,-17.784 20.28,-23.964 6.816,-4.776 12.156,-10.704 21.216,-8.892 7.56,1.5 13.908,9.312 14.1,16.944 0.072,3.264 -1.152,6.528 -0.912,9.792 0.384,5.172 2.652,10.38 2.544,15.504 -0.24,9.996 -10.044,19.188 -20.22,17.352 m -69.768,-0.816 c -5.328,-0.96 -9.336,-4.692 -13.872,-7.38 -8.928,-5.292 -20.94,-6.984 -22.728,-19.356 -1.98,-13.74 11.712,-17.712 20.688,-23.808 6.816,-4.62 12.3,-10.416 21.216,-8.64 7.56,1.5 13.908,9.312 14.1,16.944 0.096,4.224 -1.14,8.376 -1.032,12.648 0.096,4.26 2.088,8.4 1.824,12.648 -0.636,9.816 -10.044,18.768 -20.196,16.944 z" /><path
           inkscape:connector-curvature="0"
           id="path3074"
           style="fill:#ffffff;fill-opacity:1;fill-rule:nonzero;stroke:none"
           d="m 455.25189,655.34856 c -9.432,-0.576 -8.172,-15.18 1.224,-14.364 9.192,0.804 7.932,14.928 -1.224,14.364 m -69.768,-0.816 c -9.432,-0.576 -8.172,-15.18 1.224,-14.364 9.192,0.804 7.932,14.928 -1.224,14.364 m 47.736,-10.608 c -9.432,-0.576 -8.172,-15.18 1.224,-14.364 9.192,0.804 7.932,14.928 -1.224,14.364 m -69.36,-0.816 c -9.432,-0.576 -8.172,-15.18 1.224,-14.364 9.192,0.804 7.932,14.928 -1.224,14.364 m 89.76,-12.648 c -9.432,-0.576 -8.172,-15.18 1.224,-14.364 9.192,0.804 7.932,14.928 -1.224,14.364 m -68.952,-0.408 c -9.432,-0.576 -8.172,-15.18 1.224,-14.364 9.192,0.804 7.932,14.928 -1.224,14.364 z" /></g><text
         style="font-size:14.39999962px"
         y="-566.54022"
         x="316.1799"
         transform="scale(1,-1)"
         id="text3076"><tspan
           style="font-size:9.60000038px;font-variant:normal;font-weight:normal;writing-mode:lr-tb;fill:#000000;fill-opacity:1;fill-rule:nonzero;stroke:none;font-family:Arial;-inkscape-font-specification:ArialMT"
           x="316.1799 318.84225 320.97659 326.31735 331.65808 336.46121 338.59558 343.93631 346.07068 348.733 350.86734 356.20807 358.87042"
           y="-566.54022"
           sodipodi:role="line"
           id="tspan3078">fiducial id 1</tspan></text>
</g><g
       id="g4838"
       transform="translate(0,-240.92864)"><g
         id="g4840"><path
           d="m 101.04048,767.17213 0,-187.08661 187.08662,0 0,187.08661 -187.08662,0 z"
           style="fill:#ffffff;fill-opacity:1;fill-rule:nonzero;stroke:#000000;stroke-width:0.5;stroke-miterlimit:4;stroke-opacity:1;stroke-dasharray:none"
           id="path4842"
           inkscape:connector-curvature="0" /><path
           d="m 166.33989,758.65656 c -16.584,-2.208 -36.132,3.744 -48.888,-10.032 -11.556,-12.48 -6.852,-26.136 -5.82,-41.208 0.504,-7.452 1.788,-15.396 1.644,-22.848 -0.12,-6.492 -2.136,-12.744 -2.76,-19.176 -0.78,-7.98 -0.072,-16.044 -0.072,-24.072 0,-14.616 -0.276,-27.756 10.62,-39.168 7.632,-7.98 17.352,-13.368 28.548,-13.86 5.628,-0.24 11.136,0.948 16.728,1.2 8.34,0.36 16.608,-1.74 24.888,-1.176 7.584,0.516 14.844,3.3 22.44,3.624 10.704,0.444 20.496,-4.392 31.416,-2.664 19.812,3.12 34.752,22.068 34.26,41.844 -0.204,8.64 -4.188,16.692 -4.464,25.296 -0.204,6.636 2.148,13.392 2.772,19.992 0.468,4.932 -0.516,9.792 -0.732,14.688 -0.54,12.348 4.128,25.224 -2.184,36.72 -2.172,3.96 -5.268,7.044 -8.436,10.2 -8.964,8.928 -23.1,21.42 -36.72,20.724 -9.252,-0.48 -17.364,-7.032 -26.52,-6.804 -6.216,0.156 -12.12,3.444 -17.952,5.244 -5.88,1.824 -12.648,2.28 -18.768,1.476 z"
           style="fill:#000000;fill-opacity:1;fill-rule:nonzero;stroke:none"
           id="path4844"
           inkscape:connector-curvature="0" /><path
           d="m 171.23589,748.04856 c -5.364,-0.684 -10.908,-2.136 -16.32,-2.28 -11.316,-0.276 -21.144,3.216 -29.712,-6.528 -8.136,-9.252 -2.112,-21.768 -2.112,-32.64 0,-7.968 3.132,-16.2 2.376,-24.072 -0.672,-7.092 -3.672,-13.704 -4.344,-20.808 -0.588,-6.132 1.128,-12.252 0.708,-18.36 -0.912,-13.392 -1.32,-24.888 9.012,-35.076 12.756,-12.6 26.328,-7.176 42.024,-7.356 7.344,-0.084 14.196,-2.496 21.624,-1.188 6.204,1.092 12.024,4.56 18.36,4.848 10.008,0.432 18.744,-6.3 28.968,-4.704 10.788,1.68 20.796,10.044 24.708,20.22 4.992,12.972 -3.42,22.224 -4.272,34.68 -0.516,7.452 3.672,14.292 4.38,21.624 0.768,7.956 -2.064,15.696 -1.524,23.664 0.516,7.512 3.324,14.484 -0.576,21.624 -1.632,2.988 -3.924,5.784 -6.396,8.124 -7.716,7.272 -20.856,20.556 -32.64,16.32 -7.5,-2.7 -12.984,-13.98 -21.624,-12.948 -4.608,0.552 -8.724,4.968 -12.24,7.68 -5.616,4.332 -13.056,8.1 -20.4,7.176 z"
           style="fill:#ffffff;fill-opacity:1;fill-rule:nonzero;stroke:none"
           id="path4846"
           inkscape:connector-curvature="0" /><path
           d="m 229.57989,738.58056 c -11.016,-0.636 -9.78,-17.652 1.224,-16.812 10.788,0.84 9.564,17.436 -1.224,16.812 m -92.208,-0.816 c -11.016,-0.636 -9.78,-17.652 1.224,-16.812 10.788,0.84 9.564,17.436 -1.224,16.812 m 33.048,-2.388 c -2.856,-0.516 -5.532,-1.656 -7.74,-3.54 -3.756,-3.204 -6.744,-7.14 -7.284,-12.18 -1.236,-11.448 10.068,-21.192 21.144,-18.984 2.616,0.516 4.896,1.836 6.924,3.516 4.128,3.42 7.032,7.968 7.176,13.428 0.24,10.176 -10.056,19.596 -20.22,17.76 z"
           style="fill:#000000;fill-opacity:1;fill-rule:nonzero;stroke:none"
           id="path4848"
           inkscape:connector-curvature="0" /><path
           d="m 172.45989,725.11656 c -9.432,-0.576 -8.172,-15.18 1.224,-14.364 9.192,0.804 7.932,14.928 -1.224,14.364 z"
           style="fill:#ffffff;fill-opacity:1;fill-rule:nonzero;stroke:none"
           id="path4850"
           inkscape:connector-curvature="0" /><path
           d="m 249.16389,723.07656 c -11.016,-0.636 -9.78,-17.652 1.224,-16.812 10.788,0.84 9.564,17.436 -1.224,16.812 m -33.456,-10.14 c -10.536,-1.896 -17.808,-13.296 -13.992,-23.472 2.064,-5.496 7.284,-8.496 11.544,-12.072 8.088,-6.804 14.916,-17.88 26.928,-15.48 9.744,1.944 16.488,13.284 13.176,22.656 -1.968,5.592 -6.792,8.604 -11.136,12.204 -7.668,6.372 -15.108,18.216 -26.52,16.164 m -75.48,-4.14 c -11.016,-0.636 -9.78,-17.652 1.224,-16.812 10.788,0.84 9.564,17.436 -1.224,16.812 z"
           style="fill:#000000;fill-opacity:1;fill-rule:nonzero;stroke:none"
           id="path4852"
           inkscape:connector-curvature="0" /><path
           d="m 217.74789,702.67656 c -9.432,-0.576 -8.172,-15.18 1.224,-14.364 9.192,0.804 7.932,14.928 -1.224,14.364 z"
           style="fill:#ffffff;fill-opacity:1;fill-rule:nonzero;stroke:none"
           id="path4854"
           inkscape:connector-curvature="0" /><path
           d="m 172.05189,686.41656 c -5.016,-0.9 -9.204,-4.2 -13.872,-6.084 -10.032,-4.068 -21.888,-4.02 -24.288,-17.388 -1.248,-6.9 4.032,-12.384 3.408,-19.176 -0.372,-4.08 -2.496,-7.476 -3.324,-11.424 -1.38,-6.468 1.824,-12.48 6.66,-16.608 4.992,-4.26 12.528,-5.364 18.36,-2.088 4.068,2.292 6.708,6.048 11.832,5.736 4.44,-0.264 6.648,-3.3 10.2,-5.424 3.54,-2.136 7.824,-2.628 11.832,-1.824 6.264,1.248 12.432,7.416 13.68,13.68 0.756,3.768 0.108,7.596 0.648,11.424 0.984,6.768 4.932,13.032 3.408,19.992 -1.476,6.816 -7.308,10.224 -12.432,14.136 -7.728,5.904 -15.096,17.028 -26.112,15.048 z"
           style="fill:#000000;fill-opacity:1;fill-rule:nonzero;stroke:none"
           id="path4856"
           inkscape:connector-curvature="0" /><path
           d="m 236.10789,686.35656 c -9.432,-0.576 -8.172,-15.18 1.224,-14.364 9.192,0.804 7.932,14.928 -1.224,14.364 m -62.016,-10.2 c -9.432,-0.576 -8.172,-15.18 1.224,-14.364 9.192,0.804 7.932,14.928 -1.224,14.364 m -23.256,-8.568 c -9.432,-0.576 -8.172,-15.18 1.224,-14.364 9.192,0.804 7.932,14.928 -1.224,14.364 m 42.024,-6.936 c -9.432,-0.576 -8.172,-15.18 1.224,-14.364 9.192,0.804 7.932,14.928 -1.224,14.364 m -22.848,-8.568 c -9.432,-0.576 -8.172,-15.18 1.224,-14.364 9.192,0.804 7.932,14.928 -1.224,14.364 z"
           style="fill:#ffffff;fill-opacity:1;fill-rule:nonzero;stroke:none"
           id="path4858"
           inkscape:connector-curvature="0" /><path
           d="m 235.69989,647.24856 c -2.856,-0.516 -5.532,-1.656 -7.74,-3.54 -3.756,-3.204 -6.744,-7.14 -7.284,-12.18 -1.236,-11.448 10.068,-21.192 21.144,-18.984 2.616,0.516 4.896,1.836 6.924,3.516 4.128,3.42 7.032,7.956 7.176,13.428 0.24,10.176 -10.056,19.596 -20.22,17.76 z"
           style="fill:#000000;fill-opacity:1;fill-rule:nonzero;stroke:none"
           id="path4860"
           inkscape:connector-curvature="0" /><path
           d="m 237.73989,636.98856 c -9.432,-0.576 -8.172,-15.18 1.224,-14.364 9.192,0.804 7.932,14.928 -1.224,14.364 m -86.904,-0.408 c -9.432,-0.576 -8.172,-15.18 1.224,-14.364 9.192,0.804 7.932,14.928 -1.224,14.364 m 37.944,0 c -9.432,-0.576 -8.172,-15.18 1.224,-14.364 9.192,0.804 7.932,14.928 -1.224,14.364 z"
           style="fill:#ffffff;fill-opacity:1;fill-rule:nonzero;stroke:none"
           id="path4862"
           inkscape:connector-curvature="0" /></g><text
         id="text4864"
         transform="scale(1,-1)"
         x="100.70142"
         y="-566.54022"
         style="font-size:14.39999962px"><tspan
           id="tspan4866"
           sodipodi:role="line"
           y="-566.54022"
           x="100.70142 103.36375 105.4981 110.83884 116.1796 120.98273 123.11707 128.45781 130.59216 133.2545 135.38885 140.72958 143.39194"
           style="font-size:9.60000038px;font-variant:normal;font-weight:normal;writing-mode:lr-tb;fill:#000000;fill-opacity:1;fill-rule:nonzero;stroke:none;font-family:Arial;-inkscape-font-specification:ArialMT">fiducial id 0</tspan></text>
<g
         id="g4868"
         transform="translate(0,3.06052)"><path
           inkscape:connector-curvature="0"
           id="path4870"
           style="fill:#ffffff;fill-opacity:1;fill-rule:nonzero;stroke:#000000;stroke-width:0.5;stroke-miterlimit:4;stroke-opacity:1;stroke-dasharray:none"
           d="m 316.51897,764.11161 0,-187.08661 187.08662,0 0,187.08661 -187.08662,0 z" /><path
           d="m 443.41989,759.05256 c -11.64,-1.392 -21.96,-8.268 -33.864,-7.98 -7.848,0.204 -15.204,3.696 -22.848,5.052 -7.248,1.296 -14.376,-0.036 -21.624,-0.528 -11.856,-0.816 -21.984,0.048 -31.404,-8.676 -11.46,-10.596 -9.156,-23.988 -7.836,-37.872 0.684,-7.164 -0.96,-14.412 -0.264,-21.624 0.588,-6.132 3.096,-11.868 3.888,-17.952 1.08,-8.292 -3.048,-15.84 -4.992,-23.664 -1.968,-7.92 -1.488,-16.896 1.524,-24.48 4.68,-11.82 14.808,-19.536 25.212,-26.136 12.648,-8.028 24.552,-14.688 39.984,-12.96 10.164,1.128 18.792,9.9 28.968,9.696 6.924,-0.132 13.296,-4.668 19.584,-7.068 6.708,-2.568 13.74,-3.132 20.808,-2.172 15.672,2.112 29.064,15.144 33.276,30.072 1.98,7.008 1.764,14.436 2.256,21.624 0.54,7.812 1.536,15.528 -0.396,23.256 -2.4,9.588 -10.188,17.532 -11.352,27.336 -0.54,4.548 2.208,9.264 4.368,13.056 3.252,5.7 6.84,11.64 7.308,18.36 1.368,19.548 -16.332,28.884 -31.38,36.408 -6.36,3.18 -13.836,7.14 -21.216,6.252 z"
           style="fill:#000000;fill-opacity:1;fill-rule:nonzero;stroke:none"
           id="path4872"
           inkscape:connector-curvature="0" /><path
           d="m 441.78789,747.22056 c -5.508,-0.864 -10.26,-3.948 -15.504,-5.64 -6.276,-2.004 -13.044,-2.208 -19.584,-1.92 -7.752,0.348 -14.496,4.104 -22.032,5.232 -6.888,1.044 -13.512,-0.756 -20.4,-0.756 -7.716,0 -15.564,0.228 -21.624,-5.34 -8.604,-7.92 -6.096,-15.444 -5.34,-25.668 0.624,-8.472 -1.908,-16.872 -0.66,-25.296 1.068,-7.236 6.06,-13.212 7.104,-20.4 0.984,-6.876 -3.588,-12.468 -6.288,-18.36 -3.192,-6.996 -4.368,-14.64 -1.716,-22.032 1.74,-4.848 4.932,-9.048 8.532,-12.648 4.476,-4.476 9.768,-7.932 15.096,-11.292 9.588,-6.048 20.028,-12.444 31.824,-9.66 9.972,2.364 18.12,13.2 28.56,12.78 5.832,-0.24 11.088,-4.224 15.912,-7.092 6.696,-3.948 14.52,-7.104 22.44,-5.7 12.156,2.148 22.224,12.06 25.524,23.82 1.752,6.216 1.548,13.176 1.824,19.584 0.3,6.828 1.248,13.8 -1.116,20.4 -3.24,9.072 -12.06,15.972 -13.464,25.704 -1.896,13.164 11.22,20.736 13.212,32.64 2.436,14.556 -13.944,21.348 -24.348,26.844 -5.64,2.964 -11.376,5.832 -17.952,4.8 z"
           style="fill:#ffffff;fill-opacity:1;fill-rule:nonzero;stroke:none"
           id="path4874"
           inkscape:connector-curvature="0" /><path
           d="m 444.23589,738.98856 c -11.016,-0.636 -9.78,-17.652 1.224,-16.812 10.788,0.84 9.564,17.436 -1.224,16.812 m -63.648,-2.448 c -11.016,-0.636 -9.78,-17.652 1.224,-16.812 10.788,0.84 9.564,17.436 -1.224,16.812 m -28.152,-1.632 c -11.016,-0.636 -9.78,-17.652 1.224,-16.812 10.788,0.84 9.564,17.436 -1.224,16.812 m 114.648,-7.752 c -11.016,-0.636 -9.78,-17.652 1.224,-16.812 10.788,0.84 9.564,17.436 -1.224,16.812 m -57.12,-0.756 c -8.844,-1.584 -15.996,-10.32 -15.024,-19.392 0.516,-4.776 3.276,-9.144 4.236,-13.872 0.864,-4.32 -0.024,-8.832 1.176,-13.056 2.436,-8.664 11.4,-14.448 20.22,-12.936 5.22,0.888 9.972,4.836 14.688,7.116 3.924,1.896 8.484,2.148 12.24,4.26 8.856,4.98 13.332,16.488 6.96,25.224 -6,8.244 -13.584,6.072 -21.24,10.62 -7.788,4.608 -12.936,13.896 -23.256,12.036 z"
           style="fill:#000000;fill-opacity:1;fill-rule:nonzero;stroke:none"
           id="path4876"
           inkscape:connector-curvature="0" /><path
           d="m 412.00389,716.14056 c -9.432,-0.576 -8.172,-15.18 1.224,-14.364 9.192,0.804 7.932,14.928 -1.224,14.364 z"
           style="fill:#ffffff;fill-opacity:1;fill-rule:nonzero;stroke:none"
           id="path4878"
           inkscape:connector-curvature="0" /><path
           d="m 363.85989,709.67256 c -2.856,-0.516 -5.532,-1.656 -7.74,-3.54 -3.756,-3.204 -6.744,-7.14 -7.284,-12.18 -1.236,-11.448 10.068,-21.192 21.144,-18.984 2.616,0.516 4.896,1.836 6.924,3.516 4.128,3.42 7.032,7.968 7.176,13.428 0.24,10.176 -10.056,19.596 -20.22,17.76 z"
           style="fill:#000000;fill-opacity:1;fill-rule:nonzero;stroke:none"
           id="path4880"
           inkscape:connector-curvature="0" /><path
           d="m 439.33989,701.45256 c -9.432,-0.576 -8.172,-15.18 1.224,-14.364 9.192,0.804 7.932,14.928 -1.224,14.364 m -73.44,-2.04 c -9.432,-0.576 -8.172,-15.18 1.224,-14.364 9.192,0.804 7.932,14.928 -1.224,14.364 m 51,-7.752 c -9.432,-0.576 -8.172,-15.18 1.224,-14.364 9.192,0.804 7.932,14.928 -1.224,14.364 z"
           style="fill:#ffffff;fill-opacity:1;fill-rule:nonzero;stroke:none"
           id="path4882"
           inkscape:connector-curvature="0" /><path
           d="m 453.21189,665.60856 c -5.496,-0.984 -9.564,-4.92 -14.28,-7.608 -9.024,-5.148 -20.94,-6.696 -22.728,-19.128 -1.932,-13.44 11.484,-17.784 20.28,-23.964 6.816,-4.776 12.156,-10.704 21.216,-8.892 7.56,1.5 13.908,9.312 14.1,16.944 0.072,3.264 -1.152,6.528 -0.912,9.792 0.384,5.172 2.652,10.38 2.544,15.504 -0.24,9.996 -10.044,19.188 -20.22,17.352 m -69.768,-0.816 c -5.328,-0.96 -9.336,-4.692 -13.872,-7.38 -8.928,-5.292 -20.94,-6.984 -22.728,-19.356 -1.98,-13.74 11.712,-17.712 20.688,-23.808 6.816,-4.62 12.3,-10.416 21.216,-8.64 7.56,1.5 13.908,9.312 14.1,16.944 0.096,4.224 -1.14,8.376 -1.032,12.648 0.096,4.26 2.088,8.4 1.824,12.648 -0.636,9.816 -10.044,18.768 -20.196,16.944 z"
           style="fill:#000000;fill-opacity:1;fill-rule:nonzero;stroke:none"
           id="path4884"
           inkscape:connector-curvature="0" /><path
           d="m 455.25189,655.34856 c -9.432,-0.576 -8.172,-15.18 1.224,-14.364 9.192,0.804 7.932,14.928 -1.224,14.364 m -69.768,-0.816 c -9.432,-0.576 -8.172,-15.18 1.224,-14.364 9.192,0.804 7.932,14.928 -1.224,14.364 m 47.736,-10.608 c -9.432,-0.576 -8.172,-15.18 1.224,-14.364 9.192,0.804 7.932,14.928 -1.224,14.364 m -69.36,-0.816 c -9.432,-0.576 -8.172,-15.18 1.224,-14.364 9.192,0.804 7.932,14.928 -1.224,14.364 m 89.76,-12.648 c -9.432,-0.576 -8.172,-15.18 1.224,-14.364 9.192,0.804 7.932,14.928 -1.224,14.364 m -68.952,-0.408 c -9.432,-0.576 -8.172,-15.18 1.224,-14.364 9.192,0.804 7.932,14.928 -1.224,14.364 z"
           style="fill:#ffffff;fill-opacity:1;fill-rule:nonzero;stroke:none"
           id="path4886"
           inkscape:connector-curvature="0" /></g><text
         id="text4888"
         transform="scale(1,-1)"
         x="316.1799"
         y="-566.54022"
         style="font-size:14.39999962px"><tspan
           id="tspan4890"
           sodipodi:role="line"
           y="-566.54022"
           x="316.1799 318.84225 320.97659 326.31735 331.65808 336.46121 338.59558 343.93631 346.07068 348.733 350.86734 356.20807 358.87042"
           style="font-size:9.60000038px;font-variant:normal;font-weight:normal;writing-mode:lr-tb;fill:#000000;fill-opacity:1;fill-rule:nonzero;stroke:none;font-family:Arial;-inkscape-font-specification:ArialMT">fiducial id 1</tspan></text>
</g><g
       transform="translate(0,-481.85732)"
       id="g4892"><g
         id="g4894"><path
           inkscape:connector-curvature="0"
           id="path4896"
           style="fill:#ffffff;fill-opacity:1;fill-rule:nonzero;stroke:#000000;stroke-width:0.5;stroke-miterlimit:4;stroke-opacity:1;stroke-dasharray:none"
           d="m 101.04048,767.17213 0,-187.08661 187.08662,0 0,187.08661 -187.08662,0 z" /><path
           inkscape:connector-curvature="0"
           id="path4898"
           style="fill:#000000;fill-opacity:1;fill-rule:nonzero;stroke:none"
           d="m 166.33989,758.65656 c -16.584,-2.208 -36.132,3.744 -48.888,-10.032 -11.556,-12.48 -6.852,-26.136 -5.82,-41.208 0.504,-7.452 1.788,-15.396 1.644,-22.848 -0.12,-6.492 -2.136,-12.744 -2.76,-19.176 -0.78,-7.98 -0.072,-16.044 -0.072,-24.072 0,-14.616 -0.276,-27.756 10.62,-39.168 7.632,-7.98 17.352,-13.368 28.548,-13.86 5.628,-0.24 11.136,0.948 16.728,1.2 8.34,0.36 16.608,-1.74 24.888,-1.176 7.584,0.516 14.844,3.3 22.44,3.624 10.704,0.444 20.496,-4.392 31.416,-2.664 19.812,3.12 34.752,22.068 34.26,41.844 -0.204,8.64 -4.188,16.692 -4.464,25.296 -0.204,6.636 2.148,13.392 2.772,19.992 0.468,4.932 -0.516,9.792 -0.732,14.688 -0.54,12.348 4.128,25.224 -2.184,36.72 -2.172,3.96 -5.268,7.044 -8.436,10.2 -8.964,8.928 -23.1,21.42 -36.72,20.724 -9.252,-0.48 -17.364,-7.032 -26.52,-6.804 -6.216,0.156 -12.12,3.444 -17.952,5.244 -5.88,1.824 -12.648,2.28 -18.768,1.476 z" /><path
           inkscape:connector-curvature="0"
           id="path4900"
           style="fill:#ffffff;fill-opacity:1;fill-rule:nonzero;stroke:none"
           d="m 171.23589,748.04856 c -5.364,-0.684 -10.908,-2.136 -16.32,-2.28 -11.316,-0.276 -21.144,3.216 -29.712,-6.528 -8.136,-9.252 -2.112,-21.768 -2.112,-32.64 0,-7.968 3.132,-16.2 2.376,-24.072 -0.672,-7.092 -3.672,-13.704 -4.344,-20.808 -0.588,-6.132 1.128,-12.252 0.708,-18.36 -0.912,-13.392 -1.32,-24.888 9.012,-35.076 12.756,-12.6 26.328,-7.176 42.024,-7.356 7.344,-0.084 14.196,-2.496 21.624,-1.188 6.204,1.092 12.024,4.56 18.36,4.848 10.008,0.432 18.744,-6.3 28.968,-4.704 10.788,1.68 20.796,10.044 24.708,20.22 4.992,12.972 -3.42,22.224 -4.272,34.68 -0.516,7.452 3.672,14.292 4.38,21.624 0.768,7.956 -2.064,15.696 -1.524,23.664 0.516,7.512 3.324,14.484 -0.576,21.624 -1.632,2.988 -3.924,5.784 -6.396,8.124 -7.716,7.272 -20.856,20.556 -32.64,16.32 -7.5,-2.7 -12.984,-13.98 -21.624,-12.948 -4.608,0.552 -8.724,4.968 -12.24,7.68 -5.616,4.332 -13.056,8.1 -20.4,7.176 z" /><path
           inkscape:connector-curvature="0"
           id="path4902"
           style="fill:#000000;fill-opacity:1;fill-rule:nonzero;stroke:none"
           d="m 229.57989,738.58056 c -11.016,-0.636 -9.78,-17.652 1.224,-16.812 10.788,0.84 9.564,17.436 -1.224,16.812 m -92.208,-0.816 c -11.016,-0.636 -9.78,-17.652 1.224,-16.812 10.788,0.84 9.564,17.436 -1.224,16.812 m 33.048,-2.388 c -2.856,-0.516 -5.532,-1.656 -7.74,-3.54 -3.756,-3.204 -6.744,-7.14 -7.284,-12.18 -1.236,-11.448 10.068,-21.192 21.144,-18.984 2.616,0.516 4.896,1.836 6.924,3.516 4.128,3.42 7.032,7.968 7.176,13.428 0.24,10.176 -10.056,19.596 -20.22,17.76 z" /><path
           inkscape:connector-curvature="0"
           id="path4904"
           style="fill:#ffffff;fill-opacity:1;fill-rule:nonzero;stroke:none"
           d="m 172.45989,725.11656 c -9.432,-0.576 -8.172,-15.18 1.224,-14.364 9.192,0.804 7.932,14.928 -1.224,14.364 z" /><path
           inkscape:connector-curvature="0"
           id="path4906"
           style="fill:#000000;fill-opacity:1;fill-rule:nonzero;stroke:none"
           d="m 249.16389,723.07656 c -11.016,-0.636 -9.78,-17.652 1.224,-16.812 10.788,0.84 9.564,17.436 -1.224,16.812 m -33.456,-10.14 c -10.536,-1.896 -17.808,-13.296 -13.992,-23.472 2.064,-5.496 7.284,-8.496 11.544,-12.072 8.088,-6.804 14.916,-17.88 26.928,-15.48 9.744,1.944 16.488,13.284 13.176,22.656 -1.968,5.592 -6.792,8.604 -11.136,12.204 -7.668,6.372 -15.108,18.216 -26.52,16.164 m -75.48,-4.14 c -11.016,-0.636 -9.78,-17.652 1.224,-16.812 10.788,0.84 9.564,17.436 -1.224,16.812 z" /><path
           inkscape:connector-curvature="0"
           id="path4908"
           style="fill:#ffffff;fill-opacity:1;fill-rule:nonzero;stroke:none"
           d="m 217.74789,702.67656 c -9.432,-0.576 -8.172,-15.18 1.224,-14.364 9.192,0.804 7.932,14.928 -1.224,14.364 z" /><path
           inkscape:connector-curvature="0"
           id="path4910"
           style="fill:#000000;fill-opacity:1;fill-rule:nonzero;stroke:none"
           d="m 172.05189,686.41656 c -5.016,-0.9 -9.204,-4.2 -13.872,-6.084 -10.032,-4.068 -21.888,-4.02 -24.288,-17.388 -1.248,-6.9 4.032,-12.384 3.408,-19.176 -0.372,-4.08 -2.496,-7.476 -3.324,-11.424 -1.38,-6.468 1.824,-12.48 6.66,-16.608 4.992,-4.26 12.528,-5.364 18.36,-2.088 4.068,2.292 6.708,6.048 11.832,5.736 4.44,-0.264 6.648,-3.3 10.2,-5.424 3.54,-2.136 7.824,-2.628 11.832,-1.824 6.264,1.248 12.432,7.416 13.68,13.68 0.756,3.768 0.108,7.596 0.648,11.424 0.984,6.768 4.932,13.032 3.408,19.992 -1.476,6.816 -7.308,10.224 -12.432,14.136 -7.728,5.904 -15.096,17.028 -26.112,15.048 z" /><path
           inkscape:connector-curvature="0"
           id="path4912"
           style="fill:#ffffff;fill-opacity:1;fill-rule:nonzero;stroke:none"
           d="m 236.10789,686.35656 c -9.432,-0.576 -8.172,-15.18 1.224,-14.364 9.192,0.804 7.932,14.928 -1.224,14.364 m -62.016,-10.2 c -9.432,-0.576 -8.172,-15.18 1.224,-14.364 9.192,0.804 7.932,14.928 -1.224,14.364 m -23.256,-8.568 c -9.432,-0.576 -8.172,-15.18 1.224,-14.364 9.192,0.804 7.932,14.928 -1.224,14.364 m 42.024,-6.936 c -9.432,-0.576 -8.172,-15.18 1.224,-14.364 9.192,0.804 7.932,14.928 -1.224,14.364 m -22.848,-8.568 c -9.432,-0.576 -8.172,-15.18 1.224,-14.364 9.192,0.804 7.932,14.928 -1.224,14.364 z" /><path
           inkscape:connector-curvature="0"
           id="path4914"
           style="fill:#000000;fill-opacity:1;fill-rule:nonzero;stroke:none"
           d="m 235.69989,647.24856 c -2.856,-0.516 -5.532,-1.656 -7.74,-3.54 -3.756,-3.204 -6.744,-7.14 -7.284,-12.18 -1.236,-11.448 10.068,-21.192 21.144,-18.984 2.616,0.516 4.896,1.836 6.924,3.516 4.128,3.42 7.032,7.956 7.176,13.428 0.24,10.176 -10.056,19.596 -20.22,17.76 z" /><path
           inkscape:connector-curvature="0"
           id="path4916"
           style="fill:#ffffff;fill-opacity:1;fill-rule:nonzero;stroke:none"
           d="m 237.73989,636.98856 c -9.432,-0.576 -8.172,-15.18 1.224,-14.364 9.192,0.804 7.932,14.928 -1.224,14.364 m -86.904,-0.408 c -9.432,-0.576 -8.172,-15.18 1.224,-14.364 9.192,0.804 7.932,14.928 -1.224,14.364 m 37.944,0 c -9.432,-0.576 -8.172,-15.18 1.224,-14.364 9.192,0.804 7.932,14.928 -1.224,14.364 z" /></g><text
         style="font-size:14.39999962px"
         y="-566.54022"
         x="100.70142"
         transform="scale(1,-1)"
         id="text4918"><tspan
           style="font-size:9.60000038px;font-variant:normal;font-weight:normal;writing-mode:lr-tb;fill:#000000;fill-opacity:1;fill-rule:nonzero;stroke:none;font-family:Arial;-inkscape-font-specification:ArialMT"
           x="100.70142 103.36375 105.4981 110.83884 116.1796 120.98273 123.11707 128.45781 130.59216 133.2545 135.38885 140.72958 143.39194"
           y="-566.54022"
           sodipodi:role="line"
           id="tspan4920">fiducial id 0</tspan></text>
<g
         transform="translate(0,3.06052)"
         id="g4922"><path
           d="m 316.51897,764.11161 0,-187.08661 187.08662,0 0,187.08661 -187.08662,0 z"
           style="fill:#ffffff;fill-opacity:1;fill-rule:nonzero;stroke:#000000;stroke-width:0.5;stroke-miterlimit:4;stroke-opacity:1;stroke-dasharray:none"
           id="path4924"
           inkscape:connector-curvature="0" /><path
           inkscape:connector-curvature="0"
           id="path4926"
           style="fill:#000000;fill-opacity:1;fill-rule:nonzero;stroke:none"
           d="m 443.41989,759.05256 c -11.64,-1.392 -21.96,-8.268 -33.864,-7.98 -7.848,0.204 -15.204,3.696 -22.848,5.052 -7.248,1.296 -14.376,-0.036 -21.624,-0.528 -11.856,-0.816 -21.984,0.048 -31.404,-8.676 -11.46,-10.596 -9.156,-23.988 -7.836,-37.872 0.684,-7.164 -0.96,-14.412 -0.264,-21.624 0.588,-6.132 3.096,-11.868 3.888,-17.952 1.08,-8.292 -3.048,-15.84 -4.992,-23.664 -1.968,-7.92 -1.488,-16.896 1.524,-24.48 4.68,-11.82 14.808,-19.536 25.212,-26.136 12.648,-8.028 24.552,-14.688 39.984,-12.96 10.164,1.128 18.792,9.9 28.968,9.696 6.924,-0.132 13.296,-4.668 19.584,-7.068 6.708,-2.568 13.74,-3.132 20.808,-2.172 15.672,2.112 29.064,15.144 33.276,30.072 1.98,7.008 1.764,14.436 2.256,21.624 0.54,7.812 1.536,15.528 -0.396,23.256 -2.4,9.588 -10.188,17.532 -11.352,27.336 -0.54,4.548 2.208,9.264 4.368,13.056 3.252,5.7 6.84,11.64 7.308,18.36 1.368,19.548 -16.332,28.884 -31.38,36.408 -6.36,3.18 -13.836,7.14 -21.216,6.252 z" /><path
           inkscape:connector-curvature="0"
           id="path4928"
           style="fill:#ffffff;fill-opacity:1;fill-rule:nonzero;stroke:none"
           d="m 441.78789,747.22056 c -5.508,-0.864 -10.26,-3.948 -15.504,-5.64 -6.276,-2.004 -13.044,-2.208 -19.584,-1.92 -7.752,0.348 -14.496,4.104 -22.032,5.232 -6.888,1.044 -13.512,-0.756 -20.4,-0.756 -7.716,0 -15.564,0.228 -21.624,-5.34 -8.604,-7.92 -6.096,-15.444 -5.34,-25.668 0.624,-8.472 -1.908,-16.872 -0.66,-25.296 1.068,-7.236 6.06,-13.212 7.104,-20.4 0.984,-6.876 -3.588,-12.468 -6.288,-18.36 -3.192,-6.996 -4.368,-14.64 -1.716,-22.032 1.74,-4.848 4.932,-9.048 8.532,-12.648 4.476,-4.476 9.768,-7.932 15.096,-11.292 9.588,-6.048 20.028,-12.444 31.824,-9.66 9.972,2.364 18.12,13.2 28.56,12.78 5.832,-0.24 11.088,-4.224 15.912,-7.092 6.696,-3.948 14.52,-7.104 22.44,-5.7 12.156,2.148 22.224,12.06 25.524,23.82 1.752,6.216 1.548,13.176 1.824,19.584 0.3,6.828 1.248,13.8 -1.116,20.4 -3.24,9.072 -12.06,15.972 -13.464,25.704 -1.896,13.164 11.22,20.736 13.212,32.64 2.436,14.556 -13.944,21.348 -24.348,26.844 -5.64,2.964 -11.376,5.832 -17.952,4.8 z" /><path
           inkscape:connector-curvature="0"
           id="path4930"
           style="fill:#000000;fill-opacity:1;fill-rule:nonzero;stroke:none"
           d="m 444.23589,738.98856 c -11.016,-0.636 -9.78,-17.652 1.224,-16.812 10.788,0.84 9.564,17.436 -1.224,16.812 m -63.648,-2.448 c -11.016,-0.636 -9.78,-17.652 1.224,-16.812 10.788,0.84 9.564,17.436 -1.224,16.812 m -28.152,-1.632 c -11.016,-0.636 -9.78,-17.652 1.224,-16.812 10.788,0.84 9.564,17.436 -1.224,16.812 m 114.648,-7.752 c -11.016,-0.636 -9.78,-17.652 1.224,-16.812 10.788,0.84 9.564,17.436 -1.224,16.812 m -57.12,-0.756 c -8.844,-1.584 -15.996,-10.32 -15.024,-19.392 0.516,-4.776 3.276,-9.144 4.236,-13.872 0.864,-4.32 -0.024,-8.832 1.176,-13.056 2.436,-8.664 11.4,-14.448 20.22,-12.936 5.22,0.888 9.972,4.836 14.688,7.116 3.924,1.896 8.484,2.148 12.24,4.26 8.856,4.98 13.332,16.488 6.96,25.224 -6,8.244 -13.584,6.072 -21.24,10.62 -7.788,4.608 -12.936,13.896 -23.256,12.036 z" /><path
           inkscape:connector-curvature="0"
           id="path4932"
           style="fill:#ffffff;fill-opacity:1;fill-rule:nonzero;stroke:none"
           d="m 412.00389,716.14056 c -9.432,-0.576 -8.172,-15.18 1.224,-14.364 9.192,0.804 7.932,14.928 -1.224,14.364 z" /><path
           inkscape:connector-curvature="0"
           id="path4934"
           style="fill:#000000;fill-opacity:1;fill-rule:nonzero;stroke:none"
           d="m 363.85989,709.67256 c -2.856,-0.516 -5.532,-1.656 -7.74,-3.54 -3.756,-3.204 -6.744,-7.14 -7.284,-12.18 -1.236,-11.448 10.068,-21.192 21.144,-18.984 2.616,0.516 4.896,1.836 6.924,3.516 4.128,3.42 7.032,7.968 7.176,13.428 0.24,10.176 -10.056,19.596 -20.22,17.76 z" /><path
           inkscape:connector-curvature="0"
           id="path4936"
           style="fill:#ffffff;fill-opacity:1;fill-rule:nonzero;stroke:none"
           d="m 439.33989,701.45256 c -9.432,-0.576 -8.172,-15.18 1.224,-14.364 9.192,0.804 7.932,14.928 -1.224,14.364 m -73.44,-2.04 c -9.432,-0.576 -8.172,-15.18 1.224,-14.364 9.192,0.804 7.932,14.928 -1.224,14.364 m 51,-7.752 c -9.432,-0.576 -8.172,-15.18 1.224,-14.364 9.192,0.804 7.932,14.928 -1.224,14.364 z" /><path
           inkscape:connector-curvature="0"
           id="path4938"
           style="fill:#000000;fill-opacity:1;fill-rule:nonzero;stroke:none"
           d="m 453.21189,665.60856 c -5.496,-0.984 -9.564,-4.92 -14.28,-7.608 -9.024,-5.148 -20.94,-6.696 -22.728,-19.128 -1.932,-13.44 11.484,-17.784 20.28,-23.964 6.816,-4.776 12.156,-10.704 21.216,-8.892 7.56,1.5 13.908,9.312 14.1,16.944 0.072,3.264 -1.152,6.528 -0.912,9.792 0.384,5.172 2.652,10.38 2.544,15.504 -0.24,9.996 -10.044,19.188 -20.22,17.352 m -69.768,-0.816 c -5.328,-0.96 -9.336,-4.692 -13.872,-7.38 -8.928,-5.292 -20.94,-6.984 -22.728,-19.356 -1.98,-13.74 11.712,-17.712 20.688,-23.808 6.816,-4.62 12.3,-10.416 21.216,-8.64 7.56,1.5 13.908,9.312 14.1,16.944 0.096,4.224 -1.14,8.376 -1.032,12.648 0.096,4.26 2.088,8.4 1.824,12.648 -0.636,9.816 -10.044,18.768 -20.196,16.944 z" /><path
           inkscape:connector-curvature="0"
           id="path4940"
           style="fill:#ffffff;fill-opacity:1;fill-rule:nonzero;stroke:none"
           d="m 455.25189,655.34856 c -9.432,-0.576 -8.172,-15.18 1.224,-14.364 9.192,0.804 7.932,14.928 -1.224,14.364 m -69.768,-0.816 c -9.432,-0.576 -8.172,-15.18 1.224,-14.364 9.192,0.804 7.932,14.928 -1.224,14.364 m 47.736,-10.608 c -9.432,-0.576 -8.172,-15.18 1.224,-14.364 9.192,0.804 7.932,14.928 -1.224,14.364 m -69.36,-0.816 c -9.432,-0.576 -8.172,-15.18 1.224,-14.364 9.192,0.804 7.932,14.928 -1.224,14.364 m 89.76,-12.648 c -9.432,-0.576 -8.172,-15.18 1.224,-14.364 9.192,0.804 7.932,14.928 -1.224,14.364 m -68.952,-0.408 c -9.432,-0.576 -8.172,-15.18 1.224,-14.364 9.192,0.804 7.932,14.928 -1.224,14.364 z" /></g><text
         style="font-size:14.39999962px"
         y="-566.54022"
         x="316.1799"
         transform="scale(1,-1)"
         id="text4942"><tspan
           style="font-size:9.60000038px;font-variant:normal;font-weight:normal;writing-mode:lr-tb;fill:#000000;fill-opacity:1;fill-rule:nonzero;stroke:none;font-family:Arial;-inkscape-font-specification:ArialMT"
           x="316.1799 318.84225 320.97659 326.31735 331.65808 336.46121 338.59558 343.93631 346.07068 348.733 350.86734 356.20807 358.87042"
           y="-566.54022"
           sodipodi:role="line"
           id="tspan4944">fiducial id 1</tspan></text>
</g></g></svg>